{
    "asset" : {
        "generator" : "Khronos glTF Blender I/O v1.8.19",
        "version" : "2.0"
    },
    "scene" : 0,
    "scenes" : [
        {
            "name" : "Scene",
            "nodes" : [
                0
            ]
        }
    ],
    "nodes" : [
        {
            "mesh" : 0,
            "name" : "bucket",
            "rotation" : [
                0.5,
                0,
                0,
                0.8660253882408142
            ],
            "scale" : [
                0.6000000238418579,
                0.3499999940395355,
                0.699999988079071
            ]
        }
    ],
    "materials" : [
        {
            "doubleSided" : true,
            "name" : "bucketMat",
            "pbrMetallicRoughness" : {
                "baseColorFactor" : [
                    0,
                    0.016863107681274414,
                    0.588721513748169,
                    1
                ],
                "metallicFactor" : 0,
                "roughnessFactor" : 0.4000000059604645
            }
        }
    ],
    "meshes" : [
        {
            "name" : "Cube.022",
            "primitives" : [
                {
                    "attributes" : {
                        "POSITION" : 0,
                        "NORMAL" : 1,
                        "TEXCOORD_0" : 2
                    },
                    "indices" : 3,
                    "material" : 0
                }
            ]
        }
    ],
    "accessors" : [
        {
            "bufferView" : 0,
            "componentType" : 5126,
            "count" : 490,
            "max" : [
                0.5102500915527344,
                1.352599024772644,
                -2.9802322387695312e-08
            ],
            "min" : [
                -0.5102500915527344,
                -1.030419111251831,
                -0.5249999761581421
            ],
            "type" : "VEC3"
        },
        {
            "bufferView" : 1,
            "componentType" : 5126,
            "count" : 490,
            "type" : "VEC3"
        },
        {
            "bufferView" : 2,
            "componentType" : 5126,
            "count" : 490,
            "type" : "VEC2"
        },
        {
            "bufferView" : 3,
            "componentType" : 5123,
            "count" : 2136,
            "type" : "SCALAR"
        }
    ],
    "bufferViews" : [
        {
            "buffer" : 0,
            "byteLength" : 5880,
            "byteOffset" : 0
        },
        {
            "buffer" : 0,
            "byteLength" : 5880,
            "byteOffset" : 5880
        },
        {
            "buffer" : 0,
            "byteLength" : 3920,
            "byteOffset" : 11760
        },
        {
            "buffer" : 0,
            "byteLength" : 4272,
            "byteOffset" : 15680
        }
    ],
    "buffers" : [
        {
            "byteLength" : 19952,
            "uri" : "bucketv01.bin"
        }
    ]
}
