{
    "asset" : {
        "generator" : "Khronos glTF Blender I/O v1.8.19",
        "version" : "2.0"
    },
    "scene" : 0,
    "scenes" : [
        {
            "name" : "Scene",
            "nodes" : [
                0,
                1
            ]
        }
    ],
    "nodes" : [
        {
            "mesh" : 0,
            "name" : "bucketSupport"
        },
        {
            "mesh" : 1,
            "name" : "bucketSupportLegs"
        }
    ],
    "materials" : [
        {
            "name" : "conveyorRollersMat",
            "pbrMetallicRoughness" : {
                "baseColorFactor" : [
                    0.5,
                    0.4000000059604645,
                    0.4111764430999756,
                    1
                ],
                "roughnessFactor" : 0.800000011920929
            }
        }
    ],
    "meshes" : [
        {
            "name" : "Cube.023",
            "primitives" : [
                {
                    "attributes" : {
                        "POSITION" : 0,
                        "NORMAL" : 1,
                        "TEXCOORD_0" : 2
                    },
                    "indices" : 3,
                    "material" : 0
                }
            ]
        },
        {
            "name" : "Cube.031",
            "primitives" : [
                {
                    "attributes" : {
                        "POSITION" : 4,
                        "NORMAL" : 5,
                        "TEXCOORD_0" : 6
                    },
                    "indices" : 7,
                    "material" : 0
                }
            ]
        }
    ],
    "accessors" : [
        {
            "bufferView" : 0,
            "componentType" : 5126,
            "count" : 906,
            "max" : [
                1.625,
                0.6372118592262268,
                0.026912469416856766
            ],
            "min" : [
                -1.625,
                -0.13765446841716766,
                -0.8472431898117065
            ],
            "type" : "VEC3"
        },
        {
            "bufferView" : 1,
            "componentType" : 5126,
            "count" : 906,
            "type" : "VEC3"
        },
        {
            "bufferView" : 2,
            "componentType" : 5126,
            "count" : 906,
            "type" : "VEC2"
        },
        {
            "bufferView" : 3,
            "componentType" : 5123,
            "count" : 3072,
            "type" : "SCALAR"
        },
        {
            "bufferView" : 4,
            "componentType" : 5126,
            "count" : 212,
            "max" : [
                1.624999761581421,
                0.4700000286102295,
                7.063150405883789e-06
            ],
            "min" : [
                -1.625000238418579,
                -2,
                -0.8350000977516174
            ],
            "type" : "VEC3"
        },
        {
            "bufferView" : 5,
            "componentType" : 5126,
            "count" : 212,
            "type" : "VEC3"
        },
        {
            "bufferView" : 6,
            "componentType" : 5126,
            "count" : 212,
            "type" : "VEC2"
        },
        {
            "bufferView" : 7,
            "componentType" : 5123,
            "count" : 492,
            "type" : "SCALAR"
        }
    ],
    "bufferViews" : [
        {
            "buffer" : 0,
            "byteLength" : 10872,
            "byteOffset" : 0
        },
        {
            "buffer" : 0,
            "byteLength" : 10872,
            "byteOffset" : 10872
        },
        {
            "buffer" : 0,
            "byteLength" : 7248,
            "byteOffset" : 21744
        },
        {
            "buffer" : 0,
            "byteLength" : 6144,
            "byteOffset" : 28992
        },
        {
            "buffer" : 0,
            "byteLength" : 2544,
            "byteOffset" : 35136
        },
        {
            "buffer" : 0,
            "byteLength" : 2544,
            "byteOffset" : 37680
        },
        {
            "buffer" : 0,
            "byteLength" : 1696,
            "byteOffset" : 40224
        },
        {
            "buffer" : 0,
            "byteLength" : 984,
            "byteOffset" : 41920
        }
    ],
    "buffers" : [
        {
            "byteLength" : 42904,
            "uri" : "bucketSupportv01.bin"
        }
    ]
}
