{
    "asset" : {
        "generator" : "Khronos glTF Blender I/O v1.8.19",
        "version" : "2.0"
    },
    "scene" : 0,
    "scenes" : [
        {
            "name" : "Scene",
            "nodes" : [
                0,
                1,
                2
            ]
        }
    ],
    "nodes" : [
        {
            "mesh" : 0,
            "name" : "conveyorBelt.001"
        },
        {
            "mesh" : 1,
            "name" : "conveyorRoller.001",
            "rotation" : [
                0.7071068286895752,
                0,
                0,
                0.7071068286895752
            ]
        },
        {
            "mesh" : 2,
            "name" : "conveyorStablizer.001",
            "rotation" : [
                0.7071068286895752,
                0,
                0,
                0.7071068286895752
            ]
        }
    ],
    "materials" : [
        {
            "doubleSided" : true,
            "name" : "conveyorBeltMat",
            "normalTexture" : {
                "index" : 0
            },
            "pbrMetallicRoughness" : {
                "baseColorFactor" : [
                    0.07500000298023224,
                    0.08085755258798599,
                    0.10000000149011612,
                    1
                ],
                "metallicFactor" : 0,
                "roughnessFactor" : 0.5727272629737854
            }
        },
        {
            "doubleSided" : true,
            "name" : "conveyorRollersMat",
            "pbrMetallicRoughness" : {
                "baseColorFactor" : [
                    0.5,
                    0.4000000059604645,
                    0.4111764430999756,
                    1
                ],
                "roughnessFactor" : 0.800000011920929
            }
        }
    ],
    "meshes" : [
        {
            "name" : "Cube.003",
            "primitives" : [
                {
                    "attributes" : {
                        "POSITION" : 0,
                        "NORMAL" : 1,
                        "TEXCOORD_0" : 2
                    },
                    "indices" : 3,
                    "material" : 0
                }
            ]
        },
        {
            "name" : "Cylinder.002",
            "primitives" : [
                {
                    "attributes" : {
                        "POSITION" : 4,
                        "NORMAL" : 5,
                        "TEXCOORD_0" : 6
                    },
                    "indices" : 7,
                    "material" : 1
                }
            ]
        },
        {
            "name" : "Cylinder.003",
            "primitives" : [
                {
                    "attributes" : {
                        "POSITION" : 8,
                        "NORMAL" : 9,
                        "TEXCOORD_0" : 10
                    },
                    "indices" : 11,
                    "material" : 1
                }
            ]
        }
    ],
    "textures" : [
        {
            "sampler" : 0,
            "source" : 0
        }
    ],
    "images" : [
        {
            "mimeType" : "image/png",
            "name" : "conveyorBeltBump",
            "uri" : "conveyorBeltBump.png"
        }
    ],
    "accessors" : [
        {
            "bufferView" : 0,
            "componentType" : 5126,
            "count" : 380,
            "max" : [
                4.995904922485352,
                0,
                0.5
            ],
            "min" : [
                -4.995904922485352,
                -0.25,
                -0.5
            ],
            "type" : "VEC3"
        },
        {
            "bufferView" : 1,
            "componentType" : 5126,
            "count" : 380,
            "type" : "VEC3"
        },
        {
            "bufferView" : 2,
            "componentType" : 5126,
            "count" : 380,
            "type" : "VEC2"
        },
        {
            "bufferView" : 3,
            "componentType" : 5123,
            "count" : 1296,
            "type" : "SCALAR"
        },
        {
            "bufferView" : 4,
            "componentType" : 5126,
            "count" : 6520,
            "max" : [
                4.974996566772461,
                0.4759606122970581,
                0.22499677538871765
            ],
            "min" : [
                -4.974996566772461,
                -0.4759606122970581,
                0.025002852082252502
            ],
            "type" : "VEC3"
        },
        {
            "bufferView" : 5,
            "componentType" : 5126,
            "count" : 6520,
            "type" : "VEC3"
        },
        {
            "bufferView" : 6,
            "componentType" : 5126,
            "count" : 6520,
            "type" : "VEC2"
        },
        {
            "bufferView" : 7,
            "componentType" : 5123,
            "count" : 22560,
            "type" : "SCALAR"
        },
        {
            "bufferView" : 8,
            "componentType" : 5126,
            "count" : 10560,
            "max" : [
                4.949999809265137,
                0.5249999761581421,
                0.2800000011920929
            ],
            "min" : [
                -4.949999809265137,
                -0.5249999761581421,
                0.10722619295120239
            ],
            "type" : "VEC3"
        },
        {
            "bufferView" : 9,
            "componentType" : 5126,
            "count" : 10560,
            "type" : "VEC3"
        },
        {
            "bufferView" : 10,
            "componentType" : 5126,
            "count" : 10560,
            "type" : "VEC2"
        },
        {
            "bufferView" : 11,
            "componentType" : 5123,
            "count" : 39360,
            "type" : "SCALAR"
        }
    ],
    "bufferViews" : [
        {
            "buffer" : 0,
            "byteLength" : 4560,
            "byteOffset" : 0
        },
        {
            "buffer" : 0,
            "byteLength" : 4560,
            "byteOffset" : 4560
        },
        {
            "buffer" : 0,
            "byteLength" : 3040,
            "byteOffset" : 9120
        },
        {
            "buffer" : 0,
            "byteLength" : 2592,
            "byteOffset" : 12160
        },
        {
            "buffer" : 0,
            "byteLength" : 78240,
            "byteOffset" : 14752
        },
        {
            "buffer" : 0,
            "byteLength" : 78240,
            "byteOffset" : 92992
        },
        {
            "buffer" : 0,
            "byteLength" : 52160,
            "byteOffset" : 171232
        },
        {
            "buffer" : 0,
            "byteLength" : 45120,
            "byteOffset" : 223392
        },
        {
            "buffer" : 0,
            "byteLength" : 126720,
            "byteOffset" : 268512
        },
        {
            "buffer" : 0,
            "byteLength" : 126720,
            "byteOffset" : 395232
        },
        {
            "buffer" : 0,
            "byteLength" : 84480,
            "byteOffset" : 521952
        },
        {
            "buffer" : 0,
            "byteLength" : 78720,
            "byteOffset" : 606432
        }
    ],
    "samplers" : [
        {
            "magFilter" : 9729,
            "minFilter" : 9987
        }
    ],
    "buffers" : [
        {
            "byteLength" : 685152,
            "uri" : "conveyorBeltChunkv01.bin"
        }
    ]
}
