{
    "asset" : {
        "generator" : "Khronos glTF Blender I/O v1.8.19",
        "version" : "2.0"
    },
    "extensionsUsed" : [
        "KHR_materials_transmission"
    ],
    "scene" : 0,
    "scenes" : [
        {
            "name" : "Scene",
            "nodes" : [
                0
            ]
        }
    ],
    "nodes" : [
        {
            "mesh" : 0,
            "name" : "Attatchment004"
        }
    ],
    "materials" : [
        {
            "doubleSided" : true,
            "extensions" : {
                "KHR_materials_transmission" : {
                    "transmissionFactor" : 0.5884353518486023
                }
            },
            "name" : "BlackPlastic.001",
            "normalTexture" : {
                "index" : 0
            },
            "pbrMetallicRoughness" : {
                "baseColorFactor" : [
                    0.025393981486558914,
                    0.025393981486558914,
                    0.025393981486558914,
                    1
                ],
                "metallicFactor" : 0,
                "roughnessFactor" : 0.7636363506317139
            }
        },
        {
            "doubleSided" : true,
            "name" : "GoldMetal",
            "pbrMetallicRoughness" : {
                "baseColorFactor" : [
                    0.32545599341392517,
                    0.16523319482803345,
                    0,
                    1
                ],
                "roughnessFactor" : 0.4192981421947479
            }
        },
        {
            "doubleSided" : true,
            "emissiveFactor" : [
                0.10224173218011856,
                0.00913403183221817,
                0.01032982300966978
            ],
            "extensions" : {
                "KHR_materials_transmission" : {
                    "transmissionFactor" : 0.08163265138864517
                }
            },
            "name" : "RedButton",
            "pbrMetallicRoughness" : {
                "baseColorFactor" : [
                    0.14240041375160217,
                    0.028775807470083237,
                    0.027244899421930313,
                    1
                ],
                "metallicFactor" : 0,
                "roughnessFactor" : 0.5
            }
        }
    ],
    "meshes" : [
        {
            "name" : "Cube.015",
            "primitives" : [
                {
                    "attributes" : {
                        "POSITION" : 0,
                        "NORMAL" : 1,
                        "TEXCOORD_0" : 2
                    },
                    "indices" : 3,
                    "material" : 0
                },
                {
                    "attributes" : {
                        "POSITION" : 4,
                        "NORMAL" : 5,
                        "TEXCOORD_0" : 6
                    },
                    "indices" : 7,
                    "material" : 1
                },
                {
                    "attributes" : {
                        "POSITION" : 8,
                        "NORMAL" : 9,
                        "TEXCOORD_0" : 10
                    },
                    "indices" : 11,
                    "material" : 2
                }
            ]
        }
    ],
    "textures" : [
        {
            "sampler" : 0,
            "source" : 0
        }
    ],
    "images" : [
        {
            "mimeType" : "image/png",
            "name" : "BlackPlasticBump",
            "uri" : "BlackPlasticBump.png"
        }
    ],
    "accessors" : [
        {
            "bufferView" : 0,
            "componentType" : 5126,
            "count" : 2980,
            "max" : [
                0.04999999329447746,
                0.033000003546476364,
                0.05000005289912224
            ],
            "min" : [
                -0.04999998211860657,
                -0.04999999329447746,
                -0.04999999701976776
            ],
            "type" : "VEC3"
        },
        {
            "bufferView" : 1,
            "componentType" : 5126,
            "count" : 2980,
            "type" : "VEC3"
        },
        {
            "bufferView" : 2,
            "componentType" : 5126,
            "count" : 2980,
            "type" : "VEC2"
        },
        {
            "bufferView" : 3,
            "componentType" : 5123,
            "count" : 4920,
            "type" : "SCALAR"
        },
        {
            "bufferView" : 4,
            "componentType" : 5126,
            "count" : 72,
            "max" : [
                0.041666656732559204,
                1.862645149230957e-08,
                0.01666666567325592
            ],
            "min" : [
                -0.041666653007268906,
                -0.03299998864531517,
                -0.0416666641831398
            ],
            "type" : "VEC3"
        },
        {
            "bufferView" : 5,
            "componentType" : 5126,
            "count" : 72,
            "type" : "VEC3"
        },
        {
            "bufferView" : 6,
            "componentType" : 5126,
            "count" : 72,
            "type" : "VEC2"
        },
        {
            "bufferView" : 7,
            "componentType" : 5123,
            "count" : 120,
            "type" : "SCALAR"
        },
        {
            "bufferView" : 8,
            "componentType" : 5126,
            "count" : 46,
            "max" : [
                0.002316784579306841,
                0.033399999141693115,
                0.015013009309768677
            ],
            "min" : [
                -0.04399998486042023,
                0.008999979123473167,
                -0.02216213196516037
            ],
            "type" : "VEC3"
        },
        {
            "bufferView" : 9,
            "componentType" : 5126,
            "count" : 46,
            "type" : "VEC3"
        },
        {
            "bufferView" : 10,
            "componentType" : 5126,
            "count" : 46,
            "type" : "VEC2"
        },
        {
            "bufferView" : 11,
            "componentType" : 5123,
            "count" : 66,
            "type" : "SCALAR"
        }
    ],
    "bufferViews" : [
        {
            "buffer" : 0,
            "byteLength" : 35760,
            "byteOffset" : 0
        },
        {
            "buffer" : 0,
            "byteLength" : 35760,
            "byteOffset" : 35760
        },
        {
            "buffer" : 0,
            "byteLength" : 23840,
            "byteOffset" : 71520
        },
        {
            "buffer" : 0,
            "byteLength" : 9840,
            "byteOffset" : 95360
        },
        {
            "buffer" : 0,
            "byteLength" : 864,
            "byteOffset" : 105200
        },
        {
            "buffer" : 0,
            "byteLength" : 864,
            "byteOffset" : 106064
        },
        {
            "buffer" : 0,
            "byteLength" : 576,
            "byteOffset" : 106928
        },
        {
            "buffer" : 0,
            "byteLength" : 240,
            "byteOffset" : 107504
        },
        {
            "buffer" : 0,
            "byteLength" : 552,
            "byteOffset" : 107744
        },
        {
            "buffer" : 0,
            "byteLength" : 552,
            "byteOffset" : 108296
        },
        {
            "buffer" : 0,
            "byteLength" : 368,
            "byteOffset" : 108848
        },
        {
            "buffer" : 0,
            "byteLength" : 132,
            "byteOffset" : 109216
        }
    ],
    "samplers" : [
        {
            "magFilter" : 9729,
            "minFilter" : 9987
        }
    ],
    "buffers" : [
        {
            "byteLength" : 109348,
            "uri" : "attachment004.bin"
        }
    ]
}
