{
    "asset" : {
        "generator" : "Khronos glTF Blender I/O v1.8.19",
        "version" : "2.0"
    },
    "extensionsUsed" : [
        "KHR_materials_clearcoat",
        "KHR_materials_transmission"
    ],
    "scene" : 0,
    "scenes" : [
        {
            "name" : "Scene",
            "nodes" : [
                0
            ]
        }
    ],
    "nodes" : [
        {
            "mesh" : 0,
            "name" : "Attatchment005"
        }
    ],
    "materials" : [
        {
            "doubleSided" : true,
            "extensions" : {
                "KHR_materials_clearcoat" : {
                    "clearcoatFactor" : 0.6020408272743225,
                    "clearcoatRoughnessFactor" : 0.1796598583459854
                }
            },
            "name" : "ShinySilver",
            "pbrMetallicRoughness" : {
                "baseColorFactor" : [
                    0.4575320780277252,
                    0.4575320780277252,
                    0.4575320780277252,
                    1
                ],
                "metallicFactor" : 0.8299319744110107,
                "roughnessFactor" : 0.795918345451355
            }
        },
        {
            "doubleSided" : true,
            "emissiveFactor" : [
                1,
                1,
                1
            ],
            "name" : "ReasonableGlow",
            "pbrMetallicRoughness" : {
                "baseColorFactor" : [
                    0.36233988404273987,
                    0.5815184712409973,
                    0.8000000715255737,
                    1
                ],
                "metallicFactor" : 0,
                "roughnessFactor" : 0.5
            }
        },
        {
            "doubleSided" : true,
            "emissiveFactor" : [
                0.010836867291363905,
                0,
                0.6208501642487079
            ],
            "name" : "LCDScreen",
            "pbrMetallicRoughness" : {
                "baseColorFactor" : [
                    0.0764150395989418,
                    0.10921323299407959,
                    0.2956925630569458,
                    1
                ],
                "metallicFactor" : 0,
                "roughnessFactor" : 0.5
            }
        },
        {
            "doubleSided" : true,
            "extensions" : {
                "KHR_materials_transmission" : {
                    "transmissionFactor" : 0.5884353518486023
                }
            },
            "name" : "BlackPlastic.001",
            "normalTexture" : {
                "index" : 0
            },
            "pbrMetallicRoughness" : {
                "baseColorFactor" : [
                    0.025393981486558914,
                    0.025393981486558914,
                    0.025393981486558914,
                    1
                ],
                "metallicFactor" : 0,
                "roughnessFactor" : 0.7636363506317139
            }
        },
        {
            "doubleSided" : true,
            "extensions" : {
                "KHR_materials_clearcoat" : {
                    "clearcoatFactor" : 0.4285714030265808,
                    "clearcoatRoughnessFactor" : 0.27551019191741943
                }
            },
            "name" : "BlackMetal",
            "pbrMetallicRoughness" : {
                "baseColorFactor" : [
                    0.02197943441569805,
                    0.02197943441569805,
                    0.02197943441569805,
                    1
                ],
                "metallicFactor" : 0.875,
                "roughnessFactor" : 0.4659860134124756
            }
        },
        {
            "doubleSided" : true,
            "emissiveFactor" : [
                0.10224173218011856,
                0.00913403183221817,
                0.01032982300966978
            ],
            "extensions" : {
                "KHR_materials_transmission" : {
                    "transmissionFactor" : 0.08163265138864517
                }
            },
            "name" : "RedButton",
            "pbrMetallicRoughness" : {
                "baseColorFactor" : [
                    0.14240041375160217,
                    0.028775807470083237,
                    0.027244899421930313,
                    1
                ],
                "metallicFactor" : 0,
                "roughnessFactor" : 0.5
            }
        },
        {
            "doubleSided" : true,
            "name" : "GoldMetal",
            "pbrMetallicRoughness" : {
                "baseColorFactor" : [
                    0.32545599341392517,
                    0.16523319482803345,
                    0,
                    1
                ],
                "roughnessFactor" : 0.4192981421947479
            }
        }
    ],
    "meshes" : [
        {
            "name" : "Cube.016",
            "primitives" : [
                {
                    "attributes" : {
                        "POSITION" : 0,
                        "NORMAL" : 1,
                        "TEXCOORD_0" : 2
                    },
                    "indices" : 3,
                    "material" : 0
                },
                {
                    "attributes" : {
                        "POSITION" : 4,
                        "NORMAL" : 5,
                        "TEXCOORD_0" : 6
                    },
                    "indices" : 7,
                    "material" : 1
                },
                {
                    "attributes" : {
                        "POSITION" : 8,
                        "NORMAL" : 9,
                        "TEXCOORD_0" : 10
                    },
                    "indices" : 11,
                    "material" : 2
                },
                {
                    "attributes" : {
                        "POSITION" : 12,
                        "NORMAL" : 13,
                        "TEXCOORD_0" : 14
                    },
                    "indices" : 15,
                    "material" : 3
                },
                {
                    "attributes" : {
                        "POSITION" : 16,
                        "NORMAL" : 17,
                        "TEXCOORD_0" : 18
                    },
                    "indices" : 19,
                    "material" : 4
                },
                {
                    "attributes" : {
                        "POSITION" : 20,
                        "NORMAL" : 21,
                        "TEXCOORD_0" : 22
                    },
                    "indices" : 23,
                    "material" : 5
                },
                {
                    "attributes" : {
                        "POSITION" : 24,
                        "NORMAL" : 25,
                        "TEXCOORD_0" : 26
                    },
                    "indices" : 27,
                    "material" : 6
                }
            ]
        }
    ],
    "textures" : [
        {
            "sampler" : 0,
            "source" : 0
        }
    ],
    "images" : [
        {
            "mimeType" : "image/png",
            "name" : "BlackPlasticBump",
            "uri" : "BlackPlasticBump.png"
        }
    ],
    "accessors" : [
        {
            "bufferView" : 0,
            "componentType" : 5126,
            "count" : 468,
            "max" : [
                0.036999985575675964,
                0.012000002898275852,
                0.043749984353780746
            ],
            "min" : [
                0.013000006787478924,
                -0.012000002898275852,
                -0.01874990575015545
            ],
            "type" : "VEC3"
        },
        {
            "bufferView" : 1,
            "componentType" : 5126,
            "count" : 468,
            "type" : "VEC3"
        },
        {
            "bufferView" : 2,
            "componentType" : 5126,
            "count" : 468,
            "type" : "VEC2"
        },
        {
            "bufferView" : 3,
            "componentType" : 5123,
            "count" : 816,
            "type" : "SCALAR"
        },
        {
            "bufferView" : 4,
            "componentType" : 5126,
            "count" : 160,
            "max" : [
                0.03639998659491539,
                0.011400002986192703,
                0.04099998623132706
            ],
            "min" : [
                0.013600006699562073,
                -0.011400002986192703,
                -0.01599993370473385
            ],
            "type" : "VEC3"
        },
        {
            "bufferView" : 5,
            "componentType" : 5126,
            "count" : 160,
            "type" : "VEC3"
        },
        {
            "bufferView" : 6,
            "componentType" : 5126,
            "count" : 160,
            "type" : "VEC2"
        },
        {
            "bufferView" : 7,
            "componentType" : 5123,
            "count" : 576,
            "type" : "SCALAR"
        },
        {
            "bufferView" : 8,
            "componentType" : 5126,
            "count" : 4,
            "max" : [
                0.022724919021129608,
                0.022724920883774757,
                -0.0280656348913908
            ],
            "min" : [
                0.002133619040250778,
                0.0021336153149604797,
                -0.0469343401491642
            ],
            "type" : "VEC3"
        },
        {
            "bufferView" : 9,
            "componentType" : 5126,
            "count" : 4,
            "type" : "VEC3"
        },
        {
            "bufferView" : 10,
            "componentType" : 5126,
            "count" : 4,
            "type" : "VEC2"
        },
        {
            "bufferView" : 11,
            "componentType" : 5123,
            "count" : 6,
            "type" : "SCALAR"
        },
        {
            "bufferView" : 12,
            "componentType" : 5126,
            "count" : 1180,
            "max" : [
                0.04999999329447746,
                0.024999991059303284,
                0.04999998211860657
            ],
            "min" : [
                -0.04999998211860657,
                -0.04999999329447746,
                -0.05000000074505806
            ],
            "type" : "VEC3"
        },
        {
            "bufferView" : 13,
            "componentType" : 5126,
            "count" : 1180,
            "type" : "VEC3"
        },
        {
            "bufferView" : 14,
            "componentType" : 5126,
            "count" : 1180,
            "type" : "VEC2"
        },
        {
            "bufferView" : 15,
            "componentType" : 5123,
            "count" : 2019,
            "type" : "SCALAR"
        },
        {
            "bufferView" : 16,
            "componentType" : 5126,
            "count" : 805,
            "max" : [
                0.03449998050928116,
                0.02999999187886715,
                0.04999998211860657
            ],
            "min" : [
                -0.04999998211860657,
                -0.014126360416412354,
                -0.037499986588954926
            ],
            "type" : "VEC3"
        },
        {
            "bufferView" : 17,
            "componentType" : 5126,
            "count" : 805,
            "type" : "VEC3"
        },
        {
            "bufferView" : 18,
            "componentType" : 5126,
            "count" : 805,
            "type" : "VEC2"
        },
        {
            "bufferView" : 19,
            "componentType" : 5123,
            "count" : 1377,
            "type" : "SCALAR"
        },
        {
            "bufferView" : 20,
            "componentType" : 5126,
            "count" : 162,
            "max" : [
                0.04721655696630478,
                -0.01174788735806942,
                0.018437497317790985
            ],
            "min" : [
                0.038586344569921494,
                -0.020378096029162407,
                -0.024687495082616806
            ],
            "type" : "VEC3"
        },
        {
            "bufferView" : 21,
            "componentType" : 5126,
            "count" : 162,
            "type" : "VEC3"
        },
        {
            "bufferView" : 22,
            "componentType" : 5126,
            "count" : 162,
            "type" : "VEC2"
        },
        {
            "bufferView" : 23,
            "componentType" : 5123,
            "count" : 240,
            "type" : "SCALAR"
        },
        {
            "bufferView" : 24,
            "componentType" : 5126,
            "count" : 122,
            "max" : [
                0.041666656732559204,
                1.862645149230957e-08,
                0.041666653007268906
            ],
            "min" : [
                -0.043749984353780746,
                -0.033999986946582794,
                -0.04374999925494194
            ],
            "type" : "VEC3"
        },
        {
            "bufferView" : 25,
            "componentType" : 5126,
            "count" : 122,
            "type" : "VEC3"
        },
        {
            "bufferView" : 26,
            "componentType" : 5126,
            "count" : 122,
            "type" : "VEC2"
        },
        {
            "bufferView" : 27,
            "componentType" : 5123,
            "count" : 186,
            "type" : "SCALAR"
        }
    ],
    "bufferViews" : [
        {
            "buffer" : 0,
            "byteLength" : 5616,
            "byteOffset" : 0
        },
        {
            "buffer" : 0,
            "byteLength" : 5616,
            "byteOffset" : 5616
        },
        {
            "buffer" : 0,
            "byteLength" : 3744,
            "byteOffset" : 11232
        },
        {
            "buffer" : 0,
            "byteLength" : 1632,
            "byteOffset" : 14976
        },
        {
            "buffer" : 0,
            "byteLength" : 1920,
            "byteOffset" : 16608
        },
        {
            "buffer" : 0,
            "byteLength" : 1920,
            "byteOffset" : 18528
        },
        {
            "buffer" : 0,
            "byteLength" : 1280,
            "byteOffset" : 20448
        },
        {
            "buffer" : 0,
            "byteLength" : 1152,
            "byteOffset" : 21728
        },
        {
            "buffer" : 0,
            "byteLength" : 48,
            "byteOffset" : 22880
        },
        {
            "buffer" : 0,
            "byteLength" : 48,
            "byteOffset" : 22928
        },
        {
            "buffer" : 0,
            "byteLength" : 32,
            "byteOffset" : 22976
        },
        {
            "buffer" : 0,
            "byteLength" : 12,
            "byteOffset" : 23008
        },
        {
            "buffer" : 0,
            "byteLength" : 14160,
            "byteOffset" : 23020
        },
        {
            "buffer" : 0,
            "byteLength" : 14160,
            "byteOffset" : 37180
        },
        {
            "buffer" : 0,
            "byteLength" : 9440,
            "byteOffset" : 51340
        },
        {
            "buffer" : 0,
            "byteLength" : 4038,
            "byteOffset" : 60780
        },
        {
            "buffer" : 0,
            "byteLength" : 9660,
            "byteOffset" : 64820
        },
        {
            "buffer" : 0,
            "byteLength" : 9660,
            "byteOffset" : 74480
        },
        {
            "buffer" : 0,
            "byteLength" : 6440,
            "byteOffset" : 84140
        },
        {
            "buffer" : 0,
            "byteLength" : 2754,
            "byteOffset" : 90580
        },
        {
            "buffer" : 0,
            "byteLength" : 1944,
            "byteOffset" : 93336
        },
        {
            "buffer" : 0,
            "byteLength" : 1944,
            "byteOffset" : 95280
        },
        {
            "buffer" : 0,
            "byteLength" : 1296,
            "byteOffset" : 97224
        },
        {
            "buffer" : 0,
            "byteLength" : 480,
            "byteOffset" : 98520
        },
        {
            "buffer" : 0,
            "byteLength" : 1464,
            "byteOffset" : 99000
        },
        {
            "buffer" : 0,
            "byteLength" : 1464,
            "byteOffset" : 100464
        },
        {
            "buffer" : 0,
            "byteLength" : 976,
            "byteOffset" : 101928
        },
        {
            "buffer" : 0,
            "byteLength" : 372,
            "byteOffset" : 102904
        }
    ],
    "samplers" : [
        {
            "magFilter" : 9729,
            "minFilter" : 9987
        }
    ],
    "buffers" : [
        {
            "byteLength" : 103276,
            "uri" : "attachment005.bin"
        }
    ]
}
