{
    "asset" : {
        "generator" : "Khronos glTF Blender I/O v1.8.19",
        "version" : "2.0"
    },
    "scene" : 0,
    "scenes" : [
        {
            "name" : "Scene",
            "nodes" : [
                0
            ]
        }
    ],
    "nodes" : [
        {
            "mesh" : 0,
            "name" : "Attatchment007"
        }
    ],
    "meshes" : [
        {
            "name" : "Cube.018",
            "primitives" : [
                {
                    "attributes" : {
                        "POSITION" : 0,
                        "NORMAL" : 1,
                        "TEXCOORD_0" : 2
                    },
                    "indices" : 3
                }
            ]
        }
    ],
    "accessors" : [
        {
            "bufferView" : 0,
            "componentType" : 5126,
            "count" : 3933,
            "max" : [
                0.04999999329447746,
                0.03849998489022255,
                0.04999998211860657
            ],
            "min" : [
                -0.04999998211860657,
                -0.05000000074505806,
                -0.04999999701976776
            ],
            "type" : "VEC3"
        },
        {
            "bufferView" : 1,
            "componentType" : 5126,
            "count" : 3933,
            "type" : "VEC3"
        },
        {
            "bufferView" : 2,
            "componentType" : 5126,
            "count" : 3933,
            "type" : "VEC2"
        },
        {
            "bufferView" : 3,
            "componentType" : 5123,
            "count" : 7266,
            "type" : "SCALAR"
        }
    ],
    "bufferViews" : [
        {
            "buffer" : 0,
            "byteLength" : 47196,
            "byteOffset" : 0
        },
        {
            "buffer" : 0,
            "byteLength" : 47196,
            "byteOffset" : 47196
        },
        {
            "buffer" : 0,
            "byteLength" : 31464,
            "byteOffset" : 94392
        },
        {
            "buffer" : 0,
            "byteLength" : 14532,
            "byteOffset" : 125856
        }
    ],
    "buffers" : [
        {
            "byteLength" : 140388,
            "uri" : "attachment007.bin"
        }
    ]
}
