{
    "asset" : {
        "generator" : "Khronos glTF Blender I/O v1.8.19",
        "version" : "2.0"
    },
    "scene" : 0,
    "scenes" : [
        {
            "name" : "Scene",
            "nodes" : [
                0
            ]
        }
    ],
    "nodes" : [
        {
            "mesh" : 0,
            "name" : "Attatchment010"
        }
    ],
    "meshes" : [
        {
            "name" : "Cube.022",
            "primitives" : [
                {
                    "attributes" : {
                        "POSITION" : 0,
                        "NORMAL" : 1,
                        "TEXCOORD_0" : 2
                    },
                    "indices" : 3
                }
            ]
        }
    ],
    "accessors" : [
        {
            "bufferView" : 0,
            "componentType" : 5126,
            "count" : 206,
            "max" : [
                0.04999998211860657,
                0.04999998211860657,
                0.04999998211860657
            ],
            "min" : [
                -0.04999998211860657,
                -0.04999998211860657,
                -0.04999998211860657
            ],
            "type" : "VEC3"
        },
        {
            "bufferView" : 1,
            "componentType" : 5126,
            "count" : 206,
            "type" : "VEC3"
        },
        {
            "bufferView" : 2,
            "componentType" : 5126,
            "count" : 206,
            "type" : "VEC2"
        },
        {
            "bufferView" : 3,
            "componentType" : 5123,
            "count" : 546,
            "type" : "SCALAR"
        }
    ],
    "bufferViews" : [
        {
            "buffer" : 0,
            "byteLength" : 2472,
            "byteOffset" : 0
        },
        {
            "buffer" : 0,
            "byteLength" : 2472,
            "byteOffset" : 2472
        },
        {
            "buffer" : 0,
            "byteLength" : 1648,
            "byteOffset" : 4944
        },
        {
            "buffer" : 0,
            "byteLength" : 1092,
            "byteOffset" : 6592
        }
    ],
    "buffers" : [
        {
            "byteLength" : 7684,
            "uri" : "attachment010.bin"
        }
    ]
}
