{
    "asset" : {
        "generator" : "Khronos glTF Blender I/O v1.8.19",
        "version" : "2.0"
    },
    "extensionsUsed" : [
        "KHR_materials_clearcoat",
        "KHR_materials_transmission"
    ],
    "scene" : 0,
    "scenes" : [
        {
            "name" : "Scene",
            "nodes" : [
                0
            ]
        }
    ],
    "nodes" : [
        {
            "mesh" : 0,
            "name" : "Attatchment009"
        }
    ],
    "materials" : [
        {
            "doubleSided" : true,
            "extensions" : {
                "KHR_materials_clearcoat" : {
                    "clearcoatFactor" : 0.4285714030265808,
                    "clearcoatRoughnessFactor" : 0.27551019191741943
                }
            },
            "name" : "BlackMetal",
            "pbrMetallicRoughness" : {
                "baseColorFactor" : [
                    0.02197943441569805,
                    0.02197943441569805,
                    0.02197943441569805,
                    1
                ],
                "metallicFactor" : 0.875,
                "roughnessFactor" : 0.4659860134124756
            }
        },
        {
            "doubleSided" : true,
            "extensions" : {
                "KHR_materials_transmission" : {
                    "transmissionFactor" : 0.5884353518486023
                }
            },
            "name" : "BlackPlastic.001",
            "normalTexture" : {
                "index" : 0
            },
            "pbrMetallicRoughness" : {
                "baseColorFactor" : [
                    0.025393981486558914,
                    0.025393981486558914,
                    0.025393981486558914,
                    1
                ],
                "metallicFactor" : 0,
                "roughnessFactor" : 0.7636363506317139
            }
        },
        {
            "doubleSided" : true,
            "name" : "GoldMetal",
            "pbrMetallicRoughness" : {
                "baseColorFactor" : [
                    0.32545599341392517,
                    0.16523319482803345,
                    0,
                    1
                ],
                "roughnessFactor" : 0.4192981421947479
            }
        },
        {
            "doubleSided" : true,
            "emissiveFactor" : [
                0.008999999612569809,
                0.10199999809265137,
                0.01032982300966978
            ],
            "extensions" : {
                "KHR_materials_transmission" : {
                    "transmissionFactor" : 0.0820000022649765
                }
            },
            "name" : "GreenButton",
            "pbrMetallicRoughness" : {
                "baseColorFactor" : [
                    0.03999999910593033,
                    0.21400000154972076,
                    0.041999999433755875,
                    1
                ],
                "metallicFactor" : 0,
                "roughnessFactor" : 0.5
            }
        },
        {
            "doubleSided" : true,
            "emissiveFactor" : [
                0.10224173218011856,
                0.00913403183221817,
                0.01032982300966978
            ],
            "extensions" : {
                "KHR_materials_transmission" : {
                    "transmissionFactor" : 0.08163265138864517
                }
            },
            "name" : "RedButton",
            "pbrMetallicRoughness" : {
                "baseColorFactor" : [
                    0.14240041375160217,
                    0.028775807470083237,
                    0.027244899421930313,
                    1
                ],
                "metallicFactor" : 0,
                "roughnessFactor" : 0.5
            }
        },
        {
            "doubleSided" : true,
            "emissiveFactor" : [
                0.010836867291363905,
                0,
                0.6208501642487079
            ],
            "name" : "LCDScreen",
            "pbrMetallicRoughness" : {
                "baseColorFactor" : [
                    0.0764150395989418,
                    0.10921323299407959,
                    0.2956925630569458,
                    1
                ],
                "metallicFactor" : 0,
                "roughnessFactor" : 0.5
            }
        }
    ],
    "meshes" : [
        {
            "name" : "Cube.020",
            "primitives" : [
                {
                    "attributes" : {
                        "POSITION" : 0,
                        "NORMAL" : 1,
                        "TEXCOORD_0" : 2
                    },
                    "indices" : 3,
                    "material" : 0
                },
                {
                    "attributes" : {
                        "POSITION" : 4,
                        "NORMAL" : 5,
                        "TEXCOORD_0" : 6
                    },
                    "indices" : 7,
                    "material" : 1
                },
                {
                    "attributes" : {
                        "POSITION" : 8,
                        "NORMAL" : 9,
                        "TEXCOORD_0" : 10
                    },
                    "indices" : 11,
                    "material" : 2
                },
                {
                    "attributes" : {
                        "POSITION" : 12,
                        "NORMAL" : 13,
                        "TEXCOORD_0" : 14
                    },
                    "indices" : 15,
                    "material" : 3
                },
                {
                    "attributes" : {
                        "POSITION" : 16,
                        "NORMAL" : 17,
                        "TEXCOORD_0" : 18
                    },
                    "indices" : 19,
                    "material" : 4
                },
                {
                    "attributes" : {
                        "POSITION" : 20,
                        "NORMAL" : 21,
                        "TEXCOORD_0" : 22
                    },
                    "indices" : 23,
                    "material" : 5
                }
            ]
        }
    ],
    "textures" : [
        {
            "sampler" : 0,
            "source" : 0
        }
    ],
    "images" : [
        {
            "mimeType" : "image/png",
            "name" : "BlackPlasticBump",
            "uri" : "BlackPlasticBump.png"
        }
    ],
    "accessors" : [
        {
            "bufferView" : 0,
            "componentType" : 5126,
            "count" : 1468,
            "max" : [
                0.024999991059303284,
                0.018499985337257385,
                0.02529999054968357
            ],
            "min" : [
                -0.0312500074505806,
                0.013499986380338669,
                -0.04404998570680618
            ],
            "type" : "VEC3"
        },
        {
            "bufferView" : 1,
            "componentType" : 5126,
            "count" : 1468,
            "type" : "VEC3"
        },
        {
            "bufferView" : 2,
            "componentType" : 5126,
            "count" : 1468,
            "type" : "VEC2"
        },
        {
            "bufferView" : 3,
            "componentType" : 5123,
            "count" : 2592,
            "type" : "SCALAR"
        },
        {
            "bufferView" : 4,
            "componentType" : 5126,
            "count" : 2657,
            "max" : [
                0.04999999329447746,
                0.014199981465935707,
                0.04999998211860657
            ],
            "min" : [
                -0.04999998211860657,
                -0.05000000074505806,
                -0.04999999701976776
            ],
            "type" : "VEC3"
        },
        {
            "bufferView" : 5,
            "componentType" : 5126,
            "count" : 2657,
            "type" : "VEC3"
        },
        {
            "bufferView" : 6,
            "componentType" : 5126,
            "count" : 2657,
            "type" : "VEC2"
        },
        {
            "bufferView" : 7,
            "componentType" : 5123,
            "count" : 4695,
            "type" : "SCALAR"
        },
        {
            "bufferView" : 8,
            "componentType" : 5126,
            "count" : 92,
            "max" : [
                0.023000001907348633,
                -0.01599998027086258,
                0.040624991059303284
            ],
            "min" : [
                -0.024999991059303284,
                -0.024999987334012985,
                -0.04374999552965164
            ],
            "type" : "VEC3"
        },
        {
            "bufferView" : 9,
            "componentType" : 5126,
            "count" : 92,
            "type" : "VEC3"
        },
        {
            "bufferView" : 10,
            "componentType" : 5126,
            "count" : 92,
            "type" : "VEC2"
        },
        {
            "bufferView" : 11,
            "componentType" : 5123,
            "count" : 144,
            "type" : "SCALAR"
        },
        {
            "bufferView" : 12,
            "componentType" : 5126,
            "count" : 47,
            "max" : [
                0.023161644116044044,
                0.013599981553852558,
                0.0429254025220871
            ],
            "min" : [
                0.0124616464599967,
                0.013199981302022934,
                0.03817540407180786
            ],
            "type" : "VEC3"
        },
        {
            "bufferView" : 13,
            "componentType" : 5126,
            "count" : 47,
            "type" : "VEC3"
        },
        {
            "bufferView" : 14,
            "componentType" : 5126,
            "count" : 47,
            "type" : "VEC2"
        },
        {
            "bufferView" : 15,
            "componentType" : 5123,
            "count" : 90,
            "type" : "SCALAR"
        },
        {
            "bufferView" : 16,
            "componentType" : 5126,
            "count" : 45,
            "max" : [
                0.02248583734035492,
                0.016199981793761253,
                0.03674686327576637
            ],
            "min" : [
                0.013135840184986591,
                0.014199981465935707,
                0.03247186541557312
            ],
            "type" : "VEC3"
        },
        {
            "bufferView" : 17,
            "componentType" : 5126,
            "count" : 45,
            "type" : "VEC3"
        },
        {
            "bufferView" : 18,
            "componentType" : 5126,
            "count" : 45,
            "type" : "VEC2"
        },
        {
            "bufferView" : 19,
            "componentType" : 5123,
            "count" : 90,
            "type" : "SCALAR"
        },
        {
            "bufferView" : 20,
            "componentType" : 5126,
            "count" : 8,
            "max" : [
                0.008706247434020042,
                0.01299998164176941,
                0.04331561177968979
            ],
            "min" : [
                -0.02701874077320099,
                0.01299998164176941,
                0.03480936586856842
            ],
            "type" : "VEC3"
        },
        {
            "bufferView" : 21,
            "componentType" : 5126,
            "count" : 8,
            "type" : "VEC3"
        },
        {
            "bufferView" : 22,
            "componentType" : 5126,
            "count" : 8,
            "type" : "VEC2"
        },
        {
            "bufferView" : 23,
            "componentType" : 5123,
            "count" : 18,
            "type" : "SCALAR"
        }
    ],
    "bufferViews" : [
        {
            "buffer" : 0,
            "byteLength" : 17616,
            "byteOffset" : 0
        },
        {
            "buffer" : 0,
            "byteLength" : 17616,
            "byteOffset" : 17616
        },
        {
            "buffer" : 0,
            "byteLength" : 11744,
            "byteOffset" : 35232
        },
        {
            "buffer" : 0,
            "byteLength" : 5184,
            "byteOffset" : 46976
        },
        {
            "buffer" : 0,
            "byteLength" : 31884,
            "byteOffset" : 52160
        },
        {
            "buffer" : 0,
            "byteLength" : 31884,
            "byteOffset" : 84044
        },
        {
            "buffer" : 0,
            "byteLength" : 21256,
            "byteOffset" : 115928
        },
        {
            "buffer" : 0,
            "byteLength" : 9390,
            "byteOffset" : 137184
        },
        {
            "buffer" : 0,
            "byteLength" : 1104,
            "byteOffset" : 146576
        },
        {
            "buffer" : 0,
            "byteLength" : 1104,
            "byteOffset" : 147680
        },
        {
            "buffer" : 0,
            "byteLength" : 736,
            "byteOffset" : 148784
        },
        {
            "buffer" : 0,
            "byteLength" : 288,
            "byteOffset" : 149520
        },
        {
            "buffer" : 0,
            "byteLength" : 564,
            "byteOffset" : 149808
        },
        {
            "buffer" : 0,
            "byteLength" : 564,
            "byteOffset" : 150372
        },
        {
            "buffer" : 0,
            "byteLength" : 376,
            "byteOffset" : 150936
        },
        {
            "buffer" : 0,
            "byteLength" : 180,
            "byteOffset" : 151312
        },
        {
            "buffer" : 0,
            "byteLength" : 540,
            "byteOffset" : 151492
        },
        {
            "buffer" : 0,
            "byteLength" : 540,
            "byteOffset" : 152032
        },
        {
            "buffer" : 0,
            "byteLength" : 360,
            "byteOffset" : 152572
        },
        {
            "buffer" : 0,
            "byteLength" : 180,
            "byteOffset" : 152932
        },
        {
            "buffer" : 0,
            "byteLength" : 96,
            "byteOffset" : 153112
        },
        {
            "buffer" : 0,
            "byteLength" : 96,
            "byteOffset" : 153208
        },
        {
            "buffer" : 0,
            "byteLength" : 64,
            "byteOffset" : 153304
        },
        {
            "buffer" : 0,
            "byteLength" : 36,
            "byteOffset" : 153368
        }
    ],
    "samplers" : [
        {
            "magFilter" : 9729,
            "minFilter" : 9987
        }
    ],
    "buffers" : [
        {
            "byteLength" : 153404,
            "uri" : "attachment009.bin"
        }
    ]
}
