{
    "asset" : {
        "generator" : "Khronos glTF Blender I/O v1.8.19",
        "version" : "2.0"
    },
    "scene" : 0,
    "scenes" : [
        {
            "name" : "Scene",
            "nodes" : [
                0
            ]
        }
    ],
    "nodes" : [
        {
            "mesh" : 0,
            "name" : "Attatchment009",
            "translation" : [
                0,
                0.05000000074505806,
                0
            ]
        }
    ],
    "meshes" : [
        {
            "name" : "Cube.020",
            "primitives" : [
                {
                    "attributes" : {
                        "POSITION" : 0,
                        "NORMAL" : 1,
                        "TEXCOORD_0" : 2
                    },
                    "indices" : 3
                }
            ]
        }
    ],
    "accessors" : [
        {
            "bufferView" : 0,
            "componentType" : 5126,
            "count" : 4362,
            "max" : [
                0.04999999329447746,
                0.018499985337257385,
                0.04999998211860657
            ],
            "min" : [
                -0.04999998211860657,
                -0.05000000074505806,
                -0.04999999701976776
            ],
            "type" : "VEC3"
        },
        {
            "bufferView" : 1,
            "componentType" : 5126,
            "count" : 4362,
            "type" : "VEC3"
        },
        {
            "bufferView" : 2,
            "componentType" : 5126,
            "count" : 4362,
            "type" : "VEC2"
        },
        {
            "bufferView" : 3,
            "componentType" : 5123,
            "count" : 7617,
            "type" : "SCALAR"
        }
    ],
    "bufferViews" : [
        {
            "buffer" : 0,
            "byteLength" : 52344,
            "byteOffset" : 0
        },
        {
            "buffer" : 0,
            "byteLength" : 52344,
            "byteOffset" : 52344
        },
        {
            "buffer" : 0,
            "byteLength" : 34896,
            "byteOffset" : 104688
        },
        {
            "buffer" : 0,
            "byteLength" : 15234,
            "byteOffset" : 139584
        }
    ],
    "buffers" : [
        {
            "byteLength" : 154820,
            "uri" : "attachment009.bin"
        }
    ]
}
