{
    "asset" : {
        "generator" : "Khronos glTF Blender I/O v1.8.19",
        "version" : "2.0"
    },
    "extensionsUsed" : [
        "KHR_materials_clearcoat",
        "KHR_materials_transmission"
    ],
    "scene" : 0,
    "scenes" : [
        {
            "name" : "Scene",
            "nodes" : [
                0
            ]
        }
    ],
    "nodes" : [
        {
            "mesh" : 0,
            "name" : "Attatchment007"
        }
    ],
    "materials" : [
        {
            "doubleSided" : true,
            "extensions" : {
                "KHR_materials_clearcoat" : {
                    "clearcoatFactor" : 0.4285714030265808,
                    "clearcoatRoughnessFactor" : 0.27551019191741943
                }
            },
            "name" : "BlackMetal",
            "pbrMetallicRoughness" : {
                "baseColorFactor" : [
                    0.02197943441569805,
                    0.02197943441569805,
                    0.02197943441569805,
                    1
                ],
                "metallicFactor" : 0.875,
                "roughnessFactor" : 0.4659860134124756
            }
        },
        {
            "doubleSided" : true,
            "extensions" : {
                "KHR_materials_clearcoat" : {
                    "clearcoatFactor" : 0.5714285969734192,
                    "clearcoatRoughnessFactor" : 0.053809523582458496
                },
                "KHR_materials_transmission" : {
                    "transmissionFactor" : 0.5884353518486023
                }
            },
            "name" : "BlackPlastic.001",
            "pbrMetallicRoughness" : {
                "baseColorFactor" : [
                    0.025393981486558914,
                    0.025393981486558914,
                    0.025393981486558914,
                    1
                ],
                "metallicFactor" : 0,
                "roughnessFactor" : 0.5
            }
        },
        {
            "doubleSided" : true,
            "name" : "GoldMetal",
            "pbrMetallicRoughness" : {
                "baseColorFactor" : [
                    0.32545599341392517,
                    0.16523319482803345,
                    0,
                    1
                ],
                "roughnessFactor" : 0.4192981421947479
            }
        },
        {
            "doubleSided" : true,
            "emissiveFactor" : [
                0.10224173218011856,
                0.00913403183221817,
                0.01032982300966978
            ],
            "extensions" : {
                "KHR_materials_transmission" : {
                    "transmissionFactor" : 0.08163265138864517
                }
            },
            "name" : "RedButton",
            "pbrMetallicRoughness" : {
                "baseColorFactor" : [
                    0.14240041375160217,
                    0.028775807470083237,
                    0.027244899421930313,
                    1
                ],
                "metallicFactor" : 0,
                "roughnessFactor" : 0.5
            }
        },
        {
            "doubleSided" : true,
            "extensions" : {
                "KHR_materials_clearcoat" : {
                    "clearcoatFactor" : 0.6020408272743225,
                    "clearcoatRoughnessFactor" : 0.1796598583459854
                }
            },
            "name" : "ShinySilver",
            "pbrMetallicRoughness" : {
                "baseColorFactor" : [
                    0.4575320780277252,
                    0.4575320780277252,
                    0.4575320780277252,
                    1
                ],
                "metallicFactor" : 0.8299319744110107,
                "roughnessFactor" : 0.795918345451355
            }
        }
    ],
    "meshes" : [
        {
            "name" : "Cube.018",
            "primitives" : [
                {
                    "attributes" : {
                        "POSITION" : 0,
                        "NORMAL" : 1,
                        "TEXCOORD_0" : 2
                    },
                    "indices" : 3,
                    "material" : 0
                },
                {
                    "attributes" : {
                        "POSITION" : 4,
                        "NORMAL" : 5,
                        "TEXCOORD_0" : 6
                    },
                    "indices" : 7,
                    "material" : 1
                },
                {
                    "attributes" : {
                        "POSITION" : 8,
                        "NORMAL" : 9,
                        "TEXCOORD_0" : 10
                    },
                    "indices" : 11,
                    "material" : 2
                },
                {
                    "attributes" : {
                        "POSITION" : 12,
                        "NORMAL" : 13,
                        "TEXCOORD_0" : 14
                    },
                    "indices" : 15,
                    "material" : 3
                },
                {
                    "attributes" : {
                        "POSITION" : 16,
                        "NORMAL" : 17,
                        "TEXCOORD_0" : 18
                    },
                    "indices" : 19,
                    "material" : 4
                }
            ]
        }
    ],
    "accessors" : [
        {
            "bufferView" : 0,
            "componentType" : 5126,
            "count" : 771,
            "max" : [
                0.049999989569187164,
                0.037899985909461975,
                0.041666653007268906
            ],
            "min" : [
                -0.037499986588954926,
                -0.023666663095355034,
                -0.04166664928197861
            ],
            "type" : "VEC3"
        },
        {
            "bufferView" : 1,
            "componentType" : 5126,
            "count" : 771,
            "type" : "VEC3"
        },
        {
            "bufferView" : 2,
            "componentType" : 5126,
            "count" : 771,
            "type" : "VEC2"
        },
        {
            "bufferView" : 3,
            "componentType" : 5123,
            "count" : 1314,
            "type" : "SCALAR"
        },
        {
            "bufferView" : 4,
            "componentType" : 5126,
            "count" : 1605,
            "max" : [
                0.04999999329447746,
                0.037899985909461975,
                0.04999998211860657
            ],
            "min" : [
                -0.04999998211860657,
                -0.05000000074505806,
                -0.04999999701976776
            ],
            "type" : "VEC3"
        },
        {
            "bufferView" : 5,
            "componentType" : 5126,
            "count" : 1605,
            "type" : "VEC3"
        },
        {
            "bufferView" : 6,
            "componentType" : 5126,
            "count" : 1605,
            "type" : "VEC2"
        },
        {
            "bufferView" : 7,
            "componentType" : 5123,
            "count" : 2562,
            "type" : "SCALAR"
        },
        {
            "bufferView" : 8,
            "componentType" : 5126,
            "count" : 216,
            "max" : [
                0.043749988079071045,
                -0.012499995529651642,
                0.043749988079071045
            ],
            "min" : [
                -0.024999991059303284,
                -0.031249985098838806,
                -0.01874999701976776
            ],
            "type" : "VEC3"
        },
        {
            "bufferView" : 9,
            "componentType" : 5126,
            "count" : 216,
            "type" : "VEC3"
        },
        {
            "bufferView" : 10,
            "componentType" : 5126,
            "count" : 216,
            "type" : "VEC2"
        },
        {
            "bufferView" : 11,
            "componentType" : 5123,
            "count" : 342,
            "type" : "SCALAR"
        },
        {
            "bufferView" : 12,
            "componentType" : 5126,
            "count" : 72,
            "max" : [
                -0.02464686892926693,
                0.0388999842107296,
                0.024599989876151085
            ],
            "min" : [
                -0.03010311722755432,
                0.037899985909461975,
                -0.030612509697675705
            ],
            "type" : "VEC3"
        },
        {
            "bufferView" : 13,
            "componentType" : 5126,
            "count" : 72,
            "type" : "VEC3"
        },
        {
            "bufferView" : 14,
            "componentType" : 5126,
            "count" : 72,
            "type" : "VEC2"
        },
        {
            "bufferView" : 15,
            "componentType" : 5123,
            "count" : 108,
            "type" : "SCALAR"
        },
        {
            "bufferView" : 16,
            "componentType" : 5126,
            "count" : 280,
            "max" : [
                0.024156244471669197,
                0.03849998861551285,
                0.030968740582466125
            ],
            "min" : [
                -0.02317187190055847,
                0.0364999882876873,
                -0.02488125115633011
            ],
            "type" : "VEC3"
        },
        {
            "bufferView" : 17,
            "componentType" : 5126,
            "count" : 280,
            "type" : "VEC3"
        },
        {
            "bufferView" : 18,
            "componentType" : 5126,
            "count" : 280,
            "type" : "VEC2"
        },
        {
            "bufferView" : 19,
            "componentType" : 5123,
            "count" : 468,
            "type" : "SCALAR"
        }
    ],
    "bufferViews" : [
        {
            "buffer" : 0,
            "byteLength" : 9252,
            "byteOffset" : 0
        },
        {
            "buffer" : 0,
            "byteLength" : 9252,
            "byteOffset" : 9252
        },
        {
            "buffer" : 0,
            "byteLength" : 6168,
            "byteOffset" : 18504
        },
        {
            "buffer" : 0,
            "byteLength" : 2628,
            "byteOffset" : 24672
        },
        {
            "buffer" : 0,
            "byteLength" : 19260,
            "byteOffset" : 27300
        },
        {
            "buffer" : 0,
            "byteLength" : 19260,
            "byteOffset" : 46560
        },
        {
            "buffer" : 0,
            "byteLength" : 12840,
            "byteOffset" : 65820
        },
        {
            "buffer" : 0,
            "byteLength" : 5124,
            "byteOffset" : 78660
        },
        {
            "buffer" : 0,
            "byteLength" : 2592,
            "byteOffset" : 83784
        },
        {
            "buffer" : 0,
            "byteLength" : 2592,
            "byteOffset" : 86376
        },
        {
            "buffer" : 0,
            "byteLength" : 1728,
            "byteOffset" : 88968
        },
        {
            "buffer" : 0,
            "byteLength" : 684,
            "byteOffset" : 90696
        },
        {
            "buffer" : 0,
            "byteLength" : 864,
            "byteOffset" : 91380
        },
        {
            "buffer" : 0,
            "byteLength" : 864,
            "byteOffset" : 92244
        },
        {
            "buffer" : 0,
            "byteLength" : 576,
            "byteOffset" : 93108
        },
        {
            "buffer" : 0,
            "byteLength" : 216,
            "byteOffset" : 93684
        },
        {
            "buffer" : 0,
            "byteLength" : 3360,
            "byteOffset" : 93900
        },
        {
            "buffer" : 0,
            "byteLength" : 3360,
            "byteOffset" : 97260
        },
        {
            "buffer" : 0,
            "byteLength" : 2240,
            "byteOffset" : 100620
        },
        {
            "buffer" : 0,
            "byteLength" : 936,
            "byteOffset" : 102860
        }
    ],
    "buffers" : [
        {
            "byteLength" : 103796,
            "uri" : "attachment007.bin"
        }
    ]
}
