{
    "asset" : {
        "generator" : "Khronos glTF Blender I/O v1.8.19",
        "version" : "2.0"
    },
    "extensionsUsed" : [
        "KHR_materials_clearcoat",
        "KHR_materials_transmission"
    ],
    "scene" : 0,
    "scenes" : [
        {
            "name" : "Scene",
            "nodes" : [
                0
            ]
        }
    ],
    "nodes" : [
        {
            "mesh" : 0,
            "name" : "Attatchment003"
        }
    ],
    "materials" : [
        {
            "doubleSided" : true,
            "name" : "Material",
            "pbrMetallicRoughness" : {
                "baseColorFactor" : [
                    0.800000011920929,
                    0.800000011920929,
                    0.800000011920929,
                    1
                ],
                "metallicFactor" : 0,
                "roughnessFactor" : 0.4000000059604645
            }
        },
        {
            "doubleSided" : true,
            "extensions" : {
                "KHR_materials_clearcoat" : {
                    "clearcoatFactor" : 0.5714285969734192,
                    "clearcoatRoughnessFactor" : 0.053809523582458496
                },
                "KHR_materials_transmission" : {
                    "transmissionFactor" : 0.5884353518486023
                }
            },
            "name" : "BlackPlastic.001",
            "pbrMetallicRoughness" : {
                "baseColorFactor" : [
                    0.025393981486558914,
                    0.025393981486558914,
                    0.025393981486558914,
                    1
                ],
                "metallicFactor" : 0,
                "roughnessFactor" : 0.5
            }
        },
        {
            "doubleSided" : true,
            "extensions" : {
                "KHR_materials_clearcoat" : {
                    "clearcoatFactor" : 0.4285714030265808,
                    "clearcoatRoughnessFactor" : 0.27551019191741943
                },
                "KHR_materials_transmission" : {
                    "transmissionFactor" : 0.051020409911870956
                }
            },
            "name" : "BlackMetal",
            "pbrMetallicRoughness" : {
                "baseColorFactor" : [
                    0.021979352459311485,
                    0.021979352459311485,
                    0.021979352459311485,
                    1
                ],
                "metallicFactor" : 0.875,
                "roughnessFactor" : 0.4659864008426666
            }
        },
        {
            "doubleSided" : true,
            "name" : "GoldMetal",
            "pbrMetallicRoughness" : {
                "baseColorFactor" : [
                    0.32545599341392517,
                    0.16523319482803345,
                    0,
                    1
                ],
                "roughnessFactor" : 0.4192981421947479
            }
        },
        {
            "doubleSided" : true,
            "emissiveFactor" : [
                0.10224173218011856,
                0.00913403183221817,
                0.01032982300966978
            ],
            "extensions" : {
                "KHR_materials_transmission" : {
                    "transmissionFactor" : 0.08163265138864517
                }
            },
            "name" : "RedButton",
            "pbrMetallicRoughness" : {
                "baseColorFactor" : [
                    0.14240041375160217,
                    0.028775807470083237,
                    0.027244899421930313,
                    1
                ],
                "metallicFactor" : 0,
                "roughnessFactor" : 0.5
            }
        },
        {
            "doubleSided" : true,
            "emissiveFactor" : [
                0.008999999612569809,
                0.10199999809265137,
                0.01032982300966978
            ],
            "extensions" : {
                "KHR_materials_transmission" : {
                    "transmissionFactor" : 0.0820000022649765
                }
            },
            "name" : "GreenButton",
            "pbrMetallicRoughness" : {
                "baseColorFactor" : [
                    0.03999999910593033,
                    0.21400000154972076,
                    0.041999999433755875,
                    1
                ],
                "metallicFactor" : 0,
                "roughnessFactor" : 0.5
            }
        },
        {
            "doubleSided" : true,
            "emissiveFactor" : [
                0.010836867291363905,
                0,
                0.6208501642487079
            ],
            "name" : "LCDScreen",
            "pbrMetallicRoughness" : {
                "baseColorFactor" : [
                    0.0764150395989418,
                    0.10921323299407959,
                    0.2956925630569458,
                    1
                ],
                "metallicFactor" : 0,
                "roughnessFactor" : 0.5
            }
        }
    ],
    "meshes" : [
        {
            "name" : "Cube.014",
            "primitives" : [
                {
                    "attributes" : {
                        "POSITION" : 0,
                        "NORMAL" : 1,
                        "TEXCOORD_0" : 2
                    },
                    "indices" : 3,
                    "material" : 0
                },
                {
                    "attributes" : {
                        "POSITION" : 4,
                        "NORMAL" : 5,
                        "TEXCOORD_0" : 6
                    },
                    "indices" : 7,
                    "material" : 1
                },
                {
                    "attributes" : {
                        "POSITION" : 8,
                        "NORMAL" : 9,
                        "TEXCOORD_0" : 10
                    },
                    "indices" : 11,
                    "material" : 2
                },
                {
                    "attributes" : {
                        "POSITION" : 12,
                        "NORMAL" : 13,
                        "TEXCOORD_0" : 14
                    },
                    "indices" : 15,
                    "material" : 3
                },
                {
                    "attributes" : {
                        "POSITION" : 16,
                        "NORMAL" : 17,
                        "TEXCOORD_0" : 18
                    },
                    "indices" : 19,
                    "material" : 4
                },
                {
                    "attributes" : {
                        "POSITION" : 20,
                        "NORMAL" : 21,
                        "TEXCOORD_0" : 22
                    },
                    "indices" : 23,
                    "material" : 5
                },
                {
                    "attributes" : {
                        "POSITION" : 24,
                        "NORMAL" : 25,
                        "TEXCOORD_0" : 26
                    },
                    "indices" : 27,
                    "material" : 6
                }
            ]
        }
    ],
    "accessors" : [
        {
            "bufferView" : 0,
            "componentType" : 5126,
            "count" : 28,
            "max" : [
                0.041666656732559204,
                0.011333316564559937,
                -0.04999998211860657
            ],
            "min" : [
                0.024999991059303284,
                -0.0416666604578495,
                -0.04999999329447746
            ],
            "type" : "VEC3"
        },
        {
            "bufferView" : 1,
            "componentType" : 5126,
            "count" : 28,
            "type" : "VEC3"
        },
        {
            "bufferView" : 2,
            "componentType" : 5126,
            "count" : 28,
            "type" : "VEC2"
        },
        {
            "bufferView" : 3,
            "componentType" : 5123,
            "count" : 60,
            "type" : "SCALAR"
        },
        {
            "bufferView" : 4,
            "componentType" : 5126,
            "count" : 2408,
            "max" : [
                0.049999985843896866,
                0.09630000591278076,
                0.05000065267086029
            ],
            "min" : [
                -0.04999998211860657,
                -0.04999999329447746,
                -0.04999999701976776
            ],
            "type" : "VEC3"
        },
        {
            "bufferView" : 5,
            "componentType" : 5126,
            "count" : 2408,
            "type" : "VEC3"
        },
        {
            "bufferView" : 6,
            "componentType" : 5126,
            "count" : 2408,
            "type" : "VEC2"
        },
        {
            "bufferView" : 7,
            "componentType" : 5123,
            "count" : 4281,
            "type" : "SCALAR"
        },
        {
            "bufferView" : 8,
            "componentType" : 5126,
            "count" : 256,
            "max" : [
                -0.03249998763203621,
                0.02499999664723873,
                0.04250025376677513
            ],
            "min" : [
                -0.04250000789761543,
                0.015999995172023773,
                -0.04250021651387215
            ],
            "type" : "VEC3"
        },
        {
            "bufferView" : 9,
            "componentType" : 5126,
            "count" : 256,
            "type" : "VEC3"
        },
        {
            "bufferView" : 10,
            "componentType" : 5126,
            "count" : 256,
            "type" : "VEC2"
        },
        {
            "bufferView" : 11,
            "componentType" : 5123,
            "count" : 384,
            "type" : "SCALAR"
        },
        {
            "bufferView" : 12,
            "componentType" : 5126,
            "count" : 302,
            "max" : [
                0.020833320915699005,
                1.862645149230957e-08,
                -0.029166651889681816
            ],
            "min" : [
                -0.041666653007268906,
                -0.006999998819082975,
                -0.04583333060145378
            ],
            "type" : "VEC3"
        },
        {
            "bufferView" : 13,
            "componentType" : 5126,
            "count" : 302,
            "type" : "VEC3"
        },
        {
            "bufferView" : 14,
            "componentType" : 5126,
            "count" : 302,
            "type" : "VEC2"
        },
        {
            "bufferView" : 15,
            "componentType" : 5123,
            "count" : 540,
            "type" : "SCALAR"
        },
        {
            "bufferView" : 16,
            "componentType" : 5126,
            "count" : 100,
            "max" : [
                0.01969999261200428,
                0.004999980330467224,
                0.019749991595745087
            ],
            "min" : [
                0.010299996472895145,
                0.002999980002641678,
                -0.019749991595745087
            ],
            "type" : "VEC3"
        },
        {
            "bufferView" : 17,
            "componentType" : 5126,
            "count" : 100,
            "type" : "VEC3"
        },
        {
            "bufferView" : 18,
            "componentType" : 5126,
            "count" : 100,
            "type" : "VEC2"
        },
        {
            "bufferView" : 19,
            "componentType" : 5123,
            "count" : 180,
            "type" : "SCALAR"
        },
        {
            "bufferView" : 20,
            "componentType" : 5126,
            "count" : 112,
            "max" : [
                0.03301437944173813,
                0.01609789952635765,
                0.04124998673796654
            ],
            "min" : [
                0.010299996472895145,
                0.002999980002641678,
                -0.04124998301267624
            ],
            "type" : "VEC3"
        },
        {
            "bufferView" : 21,
            "componentType" : 5126,
            "count" : 112,
            "type" : "VEC3"
        },
        {
            "bufferView" : 22,
            "componentType" : 5126,
            "count" : 112,
            "type" : "VEC2"
        },
        {
            "bufferView" : 23,
            "componentType" : 5123,
            "count" : 168,
            "type" : "SCALAR"
        },
        {
            "bufferView" : 24,
            "componentType" : 5126,
            "count" : 18,
            "max" : [
                0.043467141687870026,
                0.014863728545606136,
                0.023699993267655373
            ],
            "min" : [
                -0.023994294926524162,
                -0.01703285612165928,
                -0.023699993267655373
            ],
            "type" : "VEC3"
        },
        {
            "bufferView" : 25,
            "componentType" : 5126,
            "count" : 18,
            "type" : "VEC3"
        },
        {
            "bufferView" : 26,
            "componentType" : 5126,
            "count" : 18,
            "type" : "VEC2"
        },
        {
            "bufferView" : 27,
            "componentType" : 5123,
            "count" : 30,
            "type" : "SCALAR"
        }
    ],
    "bufferViews" : [
        {
            "buffer" : 0,
            "byteLength" : 336,
            "byteOffset" : 0
        },
        {
            "buffer" : 0,
            "byteLength" : 336,
            "byteOffset" : 336
        },
        {
            "buffer" : 0,
            "byteLength" : 224,
            "byteOffset" : 672
        },
        {
            "buffer" : 0,
            "byteLength" : 120,
            "byteOffset" : 896
        },
        {
            "buffer" : 0,
            "byteLength" : 28896,
            "byteOffset" : 1016
        },
        {
            "buffer" : 0,
            "byteLength" : 28896,
            "byteOffset" : 29912
        },
        {
            "buffer" : 0,
            "byteLength" : 19264,
            "byteOffset" : 58808
        },
        {
            "buffer" : 0,
            "byteLength" : 8562,
            "byteOffset" : 78072
        },
        {
            "buffer" : 0,
            "byteLength" : 3072,
            "byteOffset" : 86636
        },
        {
            "buffer" : 0,
            "byteLength" : 3072,
            "byteOffset" : 89708
        },
        {
            "buffer" : 0,
            "byteLength" : 2048,
            "byteOffset" : 92780
        },
        {
            "buffer" : 0,
            "byteLength" : 768,
            "byteOffset" : 94828
        },
        {
            "buffer" : 0,
            "byteLength" : 3624,
            "byteOffset" : 95596
        },
        {
            "buffer" : 0,
            "byteLength" : 3624,
            "byteOffset" : 99220
        },
        {
            "buffer" : 0,
            "byteLength" : 2416,
            "byteOffset" : 102844
        },
        {
            "buffer" : 0,
            "byteLength" : 1080,
            "byteOffset" : 105260
        },
        {
            "buffer" : 0,
            "byteLength" : 1200,
            "byteOffset" : 106340
        },
        {
            "buffer" : 0,
            "byteLength" : 1200,
            "byteOffset" : 107540
        },
        {
            "buffer" : 0,
            "byteLength" : 800,
            "byteOffset" : 108740
        },
        {
            "buffer" : 0,
            "byteLength" : 360,
            "byteOffset" : 109540
        },
        {
            "buffer" : 0,
            "byteLength" : 1344,
            "byteOffset" : 109900
        },
        {
            "buffer" : 0,
            "byteLength" : 1344,
            "byteOffset" : 111244
        },
        {
            "buffer" : 0,
            "byteLength" : 896,
            "byteOffset" : 112588
        },
        {
            "buffer" : 0,
            "byteLength" : 336,
            "byteOffset" : 113484
        },
        {
            "buffer" : 0,
            "byteLength" : 216,
            "byteOffset" : 113820
        },
        {
            "buffer" : 0,
            "byteLength" : 216,
            "byteOffset" : 114036
        },
        {
            "buffer" : 0,
            "byteLength" : 144,
            "byteOffset" : 114252
        },
        {
            "buffer" : 0,
            "byteLength" : 60,
            "byteOffset" : 114396
        }
    ],
    "buffers" : [
        {
            "byteLength" : 114456,
            "uri" : "attachment003.bin"
        }
    ]
}
