{
    "asset" : {
        "generator" : "Khronos glTF Blender I/O v1.8.19",
        "version" : "2.0"
    },
    "scene" : 0,
    "scenes" : [
        {
            "name" : "Scene",
            "nodes" : [
                0
            ]
        }
    ],
    "nodes" : [
        {
            "mesh" : 0,
            "name" : "Attatchment006",
            "translation" : [
                0,
                0.05000000447034836,
                0
            ]
        }
    ],
    "meshes" : [
        {
            "name" : "Cube.017",
            "primitives" : [
                {
                    "attributes" : {
                        "POSITION" : 0,
                        "NORMAL" : 1,
                        "TEXCOORD_0" : 2
                    },
                    "indices" : 3
                }
            ]
        }
    ],
    "accessors" : [
        {
            "bufferView" : 0,
            "componentType" : 5126,
            "count" : 7527,
            "max" : [
                0.050112444907426834,
                0.025944367051124573,
                0.04999998211860657
            ],
            "min" : [
                -0.04999998211860657,
                -0.04999999329447746,
                -0.04999999701976776
            ],
            "type" : "VEC3"
        },
        {
            "bufferView" : 1,
            "componentType" : 5126,
            "count" : 7527,
            "type" : "VEC3"
        },
        {
            "bufferView" : 2,
            "componentType" : 5126,
            "count" : 7527,
            "type" : "VEC2"
        },
        {
            "bufferView" : 3,
            "componentType" : 5123,
            "count" : 12888,
            "type" : "SCALAR"
        }
    ],
    "bufferViews" : [
        {
            "buffer" : 0,
            "byteLength" : 90324,
            "byteOffset" : 0
        },
        {
            "buffer" : 0,
            "byteLength" : 90324,
            "byteOffset" : 90324
        },
        {
            "buffer" : 0,
            "byteLength" : 60216,
            "byteOffset" : 180648
        },
        {
            "buffer" : 0,
            "byteLength" : 25776,
            "byteOffset" : 240864
        }
    ],
    "buffers" : [
        {
            "byteLength" : 266640,
            "uri" : "attachment006.bin"
        }
    ]
}
