{
    "asset" : {
        "generator" : "Khronos glTF Blender I/O v1.8.19",
        "version" : "2.0"
    },
    "scene" : 0,
    "scenes" : [
        {
            "name" : "Scene",
            "nodes" : [
                0
            ]
        }
    ],
    "nodes" : [
        {
            "mesh" : 0,
            "name" : "Blank001"
        }
    ],
    "materials" : [
        {
            "doubleSided" : true,
            "name" : "Material",
            "pbrMetallicRoughness" : {
                "baseColorFactor" : [
                    0.800000011920929,
                    0.800000011920929,
                    0.800000011920929,
                    1
                ],
                "metallicFactor" : 0,
                "roughnessFactor" : 0.4000000059604645
            }
        }
    ],
    "meshes" : [
        {
            "name" : "Cube",
            "primitives" : [
                {
                    "attributes" : {
                        "POSITION" : 0,
                        "NORMAL" : 1,
                        "TEXCOORD_0" : 2
                    },
                    "indices" : 3,
                    "material" : 0
                }
            ]
        }
    ],
    "accessors" : [
        {
            "bufferView" : 0,
            "componentType" : 5126,
            "count" : 658,
            "max" : [
                0.04999999701976776,
                0.05000000447034836,
                0.04999998211860657
            ],
            "min" : [
                -0.04999999701976776,
                -0.0020000021904706955,
                -0.04999998211860657
            ],
            "type" : "VEC3"
        },
        {
            "bufferView" : 1,
            "componentType" : 5126,
            "count" : 658,
            "type" : "VEC3"
        },
        {
            "bufferView" : 2,
            "componentType" : 5126,
            "count" : 658,
            "type" : "VEC2"
        },
        {
            "bufferView" : 3,
            "componentType" : 5123,
            "count" : 1248,
            "type" : "SCALAR"
        }
    ],
    "bufferViews" : [
        {
            "buffer" : 0,
            "byteLength" : 7896,
            "byteOffset" : 0
        },
        {
            "buffer" : 0,
            "byteLength" : 7896,
            "byteOffset" : 7896
        },
        {
            "buffer" : 0,
            "byteLength" : 5264,
            "byteOffset" : 15792
        },
        {
            "buffer" : 0,
            "byteLength" : 2496,
            "byteOffset" : 21056
        }
    ],
    "buffers" : [
        {
            "byteLength" : 23552,
            "uri" : "blank001.bin"
        }
    ]
}
