{
    "asset" : {
        "generator" : "Khronos glTF Blender I/O v1.8.19",
        "version" : "2.0"
    },
    "extensionsUsed" : [
        "KHR_materials_clearcoat",
        "KHR_materials_transmission"
    ],
    "scene" : 0,
    "scenes" : [
        {
            "name" : "Scene",
            "nodes" : [
                0
            ]
        }
    ],
    "nodes" : [
        {
            "mesh" : 0,
            "name" : "blank009"
        }
    ],
    "materials" : [
        {
            "doubleSided" : true,
            "extensions" : {
                "KHR_materials_clearcoat" : {
                    "clearcoatFactor" : 0.4285714030265808,
                    "clearcoatRoughnessFactor" : 0.27551019191741943
                }
            },
            "name" : "BlackMetal",
            "pbrMetallicRoughness" : {
                "baseColorFactor" : [
                    0.02197943441569805,
                    0.02197943441569805,
                    0.02197943441569805,
                    1
                ],
                "metallicFactor" : 0.875,
                "roughnessFactor" : 0.4659860134124756
            }
        },
        {
            "doubleSided" : true,
            "extensions" : {
                "KHR_materials_transmission" : {
                    "transmissionFactor" : 0.5884353518486023
                }
            },
            "name" : "BlackPlastic.001",
            "normalTexture" : {
                "index" : 0
            },
            "pbrMetallicRoughness" : {
                "baseColorFactor" : [
                    0.025393981486558914,
                    0.025393981486558914,
                    0.025393981486558914,
                    1
                ],
                "metallicFactor" : 0,
                "roughnessFactor" : 0.7636363506317139
            }
        },
        {
            "doubleSided" : true,
            "name" : "GoldMetal",
            "pbrMetallicRoughness" : {
                "baseColorFactor" : [
                    0.32545599341392517,
                    0.16523319482803345,
                    0,
                    1
                ],
                "roughnessFactor" : 0.4192981421947479
            }
        }
    ],
    "meshes" : [
        {
            "name" : "Cube.008",
            "primitives" : [
                {
                    "attributes" : {
                        "POSITION" : 0,
                        "NORMAL" : 1,
                        "TEXCOORD_0" : 2
                    },
                    "indices" : 3,
                    "material" : 0
                },
                {
                    "attributes" : {
                        "POSITION" : 4,
                        "NORMAL" : 5,
                        "TEXCOORD_0" : 6
                    },
                    "indices" : 7,
                    "material" : 1
                },
                {
                    "attributes" : {
                        "POSITION" : 8,
                        "NORMAL" : 9,
                        "TEXCOORD_0" : 10
                    },
                    "indices" : 11,
                    "material" : 2
                }
            ]
        }
    ],
    "textures" : [
        {
            "sampler" : 0,
            "source" : 0
        }
    ],
    "images" : [
        {
            "mimeType" : "image/png",
            "name" : "BlackPlasticBump",
            "uri" : "BlackPlasticBump.png"
        }
    ],
    "accessors" : [
        {
            "bufferView" : 0,
            "componentType" : 5126,
            "count" : 87,
            "max" : [
                0.04999999701976776,
                1.862645149230957e-09,
                0.04999999701976776
            ],
            "min" : [
                -0.050000011920928955,
                -0.0020000115036964417,
                -0.04999998211860657
            ],
            "type" : "VEC3"
        },
        {
            "bufferView" : 1,
            "componentType" : 5126,
            "count" : 87,
            "type" : "VEC3"
        },
        {
            "bufferView" : 2,
            "componentType" : 5126,
            "count" : 87,
            "type" : "VEC2"
        },
        {
            "bufferView" : 3,
            "componentType" : 5123,
            "count" : 192,
            "type" : "SCALAR"
        },
        {
            "bufferView" : 4,
            "componentType" : 5126,
            "count" : 738,
            "max" : [
                0.04999999701976776,
                0.050000011920928955,
                0.04999999701976776
            ],
            "min" : [
                -0.050000011920928955,
                0,
                -0.04999998211860657
            ],
            "type" : "VEC3"
        },
        {
            "bufferView" : 5,
            "componentType" : 5126,
            "count" : 738,
            "type" : "VEC3"
        },
        {
            "bufferView" : 6,
            "componentType" : 5126,
            "count" : 738,
            "type" : "VEC2"
        },
        {
            "bufferView" : 7,
            "componentType" : 5123,
            "count" : 1272,
            "type" : "SCALAR"
        },
        {
            "bufferView" : 8,
            "componentType" : 5126,
            "count" : 96,
            "max" : [
                0.024999991059303284,
                0.03399999812245369,
                0.04062499850988388
            ],
            "min" : [
                -0.025000007823109627,
                0.024999994784593582,
                -0.043749984353780746
            ],
            "type" : "VEC3"
        },
        {
            "bufferView" : 9,
            "componentType" : 5126,
            "count" : 96,
            "type" : "VEC3"
        },
        {
            "bufferView" : 10,
            "componentType" : 5126,
            "count" : 96,
            "type" : "VEC2"
        },
        {
            "bufferView" : 11,
            "componentType" : 5123,
            "count" : 144,
            "type" : "SCALAR"
        }
    ],
    "bufferViews" : [
        {
            "buffer" : 0,
            "byteLength" : 1044,
            "byteOffset" : 0
        },
        {
            "buffer" : 0,
            "byteLength" : 1044,
            "byteOffset" : 1044
        },
        {
            "buffer" : 0,
            "byteLength" : 696,
            "byteOffset" : 2088
        },
        {
            "buffer" : 0,
            "byteLength" : 384,
            "byteOffset" : 2784
        },
        {
            "buffer" : 0,
            "byteLength" : 8856,
            "byteOffset" : 3168
        },
        {
            "buffer" : 0,
            "byteLength" : 8856,
            "byteOffset" : 12024
        },
        {
            "buffer" : 0,
            "byteLength" : 5904,
            "byteOffset" : 20880
        },
        {
            "buffer" : 0,
            "byteLength" : 2544,
            "byteOffset" : 26784
        },
        {
            "buffer" : 0,
            "byteLength" : 1152,
            "byteOffset" : 29328
        },
        {
            "buffer" : 0,
            "byteLength" : 1152,
            "byteOffset" : 30480
        },
        {
            "buffer" : 0,
            "byteLength" : 768,
            "byteOffset" : 31632
        },
        {
            "buffer" : 0,
            "byteLength" : 288,
            "byteOffset" : 32400
        }
    ],
    "samplers" : [
        {
            "magFilter" : 9729,
            "minFilter" : 9987
        }
    ],
    "buffers" : [
        {
            "byteLength" : 32688,
            "uri" : "blank009.bin"
        }
    ]
}
