{
    "asset" : {
        "generator" : "Khronos glTF Blender I/O v1.8.19",
        "version" : "2.0"
    },
    "scene" : 0,
    "scenes" : [
        {
            "name" : "Scene",
            "nodes" : [
                0
            ]
        }
    ],
    "nodes" : [
        {
            "mesh" : 0,
            "name" : "Screen."
        }
    ],
    "materials" : [
        {
            "doubleSided" : true,
            "name" : "BlackPlastic",
            "pbrMetallicRoughness" : {
                "baseColorFactor" : [
                    0.023650916293263435,
                    0.023650916293263435,
                    0.023650916293263435,
                    1
                ],
                "metallicFactor" : 0,
                "roughnessFactor" : 0.5
            }
        },
        {
            "doubleSided" : true,
            "name" : "Screen",
            "pbrMetallicRoughness" : {
                "baseColorFactor" : [
                    0.3091793656349182,
                    0.7771401405334473,
                    0.8000000715255737,
                    1
                ],
                "metallicFactor" : 0,
                "roughnessFactor" : 0.5
            }
        }
    ],
    "meshes" : [
        {
            "name" : "Cube.033",
            "primitives" : [
                {
                    "attributes" : {
                        "POSITION" : 0,
                        "NORMAL" : 1,
                        "TEXCOORD_0" : 2
                    },
                    "indices" : 3,
                    "material" : 0
                },
                {
                    "attributes" : {
                        "POSITION" : 4,
                        "NORMAL" : 5,
                        "TEXCOORD_0" : 6
                    },
                    "indices" : 7,
                    "material" : 1
                }
            ]
        }
    ],
    "accessors" : [
        {
            "bufferView" : 0,
            "componentType" : 5126,
            "count" : 281,
            "max" : [
                0.6959999799728394,
                0.3999999761581421,
                0.05000000074505806
            ],
            "min" : [
                -0.6959999799728394,
                -0.3999999761581421,
                0.019999971613287926
            ],
            "type" : "VEC3"
        },
        {
            "bufferView" : 1,
            "componentType" : 5126,
            "count" : 281,
            "type" : "VEC3"
        },
        {
            "bufferView" : 2,
            "componentType" : 5126,
            "count" : 281,
            "type" : "VEC2"
        },
        {
            "bufferView" : 3,
            "componentType" : 5123,
            "count" : 438,
            "type" : "SCALAR"
        },
        {
            "bufferView" : 4,
            "componentType" : 5126,
            "count" : 4,
            "max" : [
                0.6859999895095825,
                0.38999998569488525,
                0.04800000041723251
            ],
            "min" : [
                -0.6859999895095825,
                -0.38999998569488525,
                0.047999996691942215
            ],
            "type" : "VEC3"
        },
        {
            "bufferView" : 5,
            "componentType" : 5126,
            "count" : 4,
            "type" : "VEC3"
        },
        {
            "bufferView" : 6,
            "componentType" : 5126,
            "count" : 4,
            "type" : "VEC2"
        },
        {
            "bufferView" : 7,
            "componentType" : 5123,
            "count" : 6,
            "type" : "SCALAR"
        }
    ],
    "bufferViews" : [
        {
            "buffer" : 0,
            "byteLength" : 3372,
            "byteOffset" : 0
        },
        {
            "buffer" : 0,
            "byteLength" : 3372,
            "byteOffset" : 3372
        },
        {
            "buffer" : 0,
            "byteLength" : 2248,
            "byteOffset" : 6744
        },
        {
            "buffer" : 0,
            "byteLength" : 876,
            "byteOffset" : 8992
        },
        {
            "buffer" : 0,
            "byteLength" : 48,
            "byteOffset" : 9868
        },
        {
            "buffer" : 0,
            "byteLength" : 48,
            "byteOffset" : 9916
        },
        {
            "buffer" : 0,
            "byteLength" : 32,
            "byteOffset" : 9964
        },
        {
            "buffer" : 0,
            "byteLength" : 12,
            "byteOffset" : 9996
        }
    ],
    "buffers" : [
        {
            "byteLength" : 10008,
            "uri" : "InfoScreen.bin"
        }
    ]
}
