{
    "asset" : {
        "generator" : "Khronos glTF Blender I/O v1.8.19",
        "version" : "2.0"
    },
    "scene" : 0,
    "scenes" : [
        {
            "name" : "Scene",
            "nodes" : [
                0
            ]
        }
    ],
    "nodes" : [
        {
            "mesh" : 0,
            "name" : "Screen."
        }
    ],
    "materials" : [
        {
            "doubleSided" : true,
            "name" : "BlackPlastic",
            "pbrMetallicRoughness" : {
                "baseColorFactor" : [
                    0.023650916293263435,
                    0.023650916293263435,
                    0.023650916293263435,
                    1
                ],
                "metallicFactor" : 0,
                "roughnessFactor" : 0.5
            }
        },
        {
            "doubleSided" : true,
            "name" : "Screen",
            "pbrMetallicRoughness" : {
                "baseColorFactor" : [
                    0.3091793656349182,
                    0.7771401405334473,
                    0.8000000715255737,
                    1
                ],
                "metallicFactor" : 0,
                "roughnessFactor" : 0.5
            }
        }
    ],
    "meshes" : [
        {
            "name" : "Cube.033",
            "primitives" : [
                {
                    "attributes" : {
                        "POSITION" : 0,
                        "NORMAL" : 1,
                        "TEXCOORD_0" : 2
                    },
                    "indices" : 3,
                    "material" : 0
                },
                {
                    "attributes" : {
                        "POSITION" : 4,
                        "NORMAL" : 5,
                        "TEXCOORD_0" : 6
                    },
                    "indices" : 7,
                    "material" : 1
                }
            ]
        }
    ],
    "accessors" : [
        {
            "bufferView" : 0,
            "componentType" : 5126,
            "count" : 274,
            "max" : [
                0.6959999799728394,
                0.40000003576278687,
                0.015473703853785992
            ],
            "min" : [
                -0.6959999799728394,
                -0.40000003576278687,
                -0.014526325277984142
            ],
            "type" : "VEC3"
        },
        {
            "bufferView" : 1,
            "componentType" : 5126,
            "count" : 274,
            "type" : "VEC3"
        },
        {
            "bufferView" : 2,
            "componentType" : 5126,
            "count" : 274,
            "type" : "VEC2"
        },
        {
            "bufferView" : 3,
            "componentType" : 5123,
            "count" : 438,
            "type" : "SCALAR"
        },
        {
            "bufferView" : 4,
            "componentType" : 5126,
            "count" : 4,
            "max" : [
                0.6859999895095825,
                0.39000004529953003,
                0.013473703525960445
            ],
            "min" : [
                -0.6859999895095825,
                -0.39000004529953003,
                0.013473699800670147
            ],
            "type" : "VEC3"
        },
        {
            "bufferView" : 5,
            "componentType" : 5126,
            "count" : 4,
            "type" : "VEC3"
        },
        {
            "bufferView" : 6,
            "componentType" : 5126,
            "count" : 4,
            "type" : "VEC2"
        },
        {
            "bufferView" : 7,
            "componentType" : 5123,
            "count" : 6,
            "type" : "SCALAR"
        }
    ],
    "bufferViews" : [
        {
            "buffer" : 0,
            "byteLength" : 3288,
            "byteOffset" : 0
        },
        {
            "buffer" : 0,
            "byteLength" : 3288,
            "byteOffset" : 3288
        },
        {
            "buffer" : 0,
            "byteLength" : 2192,
            "byteOffset" : 6576
        },
        {
            "buffer" : 0,
            "byteLength" : 876,
            "byteOffset" : 8768
        },
        {
            "buffer" : 0,
            "byteLength" : 48,
            "byteOffset" : 9644
        },
        {
            "buffer" : 0,
            "byteLength" : 48,
            "byteOffset" : 9692
        },
        {
            "buffer" : 0,
            "byteLength" : 32,
            "byteOffset" : 9740
        },
        {
            "buffer" : 0,
            "byteLength" : 12,
            "byteOffset" : 9772
        }
    ],
    "buffers" : [
        {
            "byteLength" : 9784,
            "uri" : "InfoScreen.bin"
        }
    ]
}
