{
    "asset" : {
        "generator" : "Khronos glTF Blender I/O v1.8.19",
        "version" : "2.0"
    },
    "scene" : 0,
    "scenes" : [
        {
            "name" : "Scene",
            "nodes" : [
                0
            ]
        }
    ],
    "nodes" : [
        {
            "mesh" : 0,
            "name" : "MonitorSupportBeam"
        }
    ],
    "meshes" : [
        {
            "name" : "Cube.039",
            "primitives" : [
                {
                    "attributes" : {
                        "POSITION" : 0,
                        "NORMAL" : 1,
                        "TEXCOORD_0" : 2
                    },
                    "indices" : 3
                }
            ]
        }
    ],
    "accessors" : [
        {
            "bufferView" : 0,
            "componentType" : 5126,
            "count" : 1217,
            "max" : [
                0.25,
                3.2300000190734863,
                0.25
            ],
            "min" : [
                -0.25,
                0,
                -0.25
            ],
            "type" : "VEC3"
        },
        {
            "bufferView" : 1,
            "componentType" : 5126,
            "count" : 1217,
            "type" : "VEC3"
        },
        {
            "bufferView" : 2,
            "componentType" : 5126,
            "count" : 1217,
            "type" : "VEC2"
        },
        {
            "bufferView" : 3,
            "componentType" : 5123,
            "count" : 2214,
            "type" : "SCALAR"
        }
    ],
    "bufferViews" : [
        {
            "buffer" : 0,
            "byteLength" : 14604,
            "byteOffset" : 0
        },
        {
            "buffer" : 0,
            "byteLength" : 14604,
            "byteOffset" : 14604
        },
        {
            "buffer" : 0,
            "byteLength" : 9736,
            "byteOffset" : 29208
        },
        {
            "buffer" : 0,
            "byteLength" : 4428,
            "byteOffset" : 38944
        }
    ],
    "buffers" : [
        {
            "byteLength" : 43372,
            "uri" : "MonitorSupportBeam.bin"
        }
    ]
}
