{
    "asset" : {
        "generator" : "Khronos glTF Blender I/O v1.8.19",
        "version" : "2.0"
    },
    "scene" : 0,
    "scenes" : [
        {
            "name" : "Scene",
            "nodes" : [
                0
            ]
        }
    ],
    "nodes" : [
        {
            "mesh" : 0,
            "name" : "MonitorSupportBeam"
        }
    ],
    "materials" : [
        {
            "doubleSided" : true,
            "name" : "SilverMetal",
            "pbrMetallicRoughness" : {
                "baseColorFactor" : [
                    0.11927573382854462,
                    0.11927573382854462,
                    0.11927573382854462,
                    1
                ],
                "metallicFactor" : 0.4912280738353729,
                "roughnessFactor" : 0.6192982196807861
            }
        }
    ],
    "meshes" : [
        {
            "name" : "Cube.039",
            "primitives" : [
                {
                    "attributes" : {
                        "POSITION" : 0,
                        "NORMAL" : 1,
                        "TEXCOORD_0" : 2
                    },
                    "indices" : 3,
                    "material" : 0
                }
            ]
        }
    ],
    "accessors" : [
        {
            "bufferView" : 0,
            "componentType" : 5126,
            "count" : 1004,
            "max" : [
                0.25,
                3.2300000190734863,
                0.25
            ],
            "min" : [
                -0.25,
                0,
                -0.25
            ],
            "type" : "VEC3"
        },
        {
            "bufferView" : 1,
            "componentType" : 5126,
            "count" : 1004,
            "type" : "VEC3"
        },
        {
            "bufferView" : 2,
            "componentType" : 5126,
            "count" : 1004,
            "type" : "VEC2"
        },
        {
            "bufferView" : 3,
            "componentType" : 5123,
            "count" : 1806,
            "type" : "SCALAR"
        }
    ],
    "bufferViews" : [
        {
            "buffer" : 0,
            "byteLength" : 12048,
            "byteOffset" : 0
        },
        {
            "buffer" : 0,
            "byteLength" : 12048,
            "byteOffset" : 12048
        },
        {
            "buffer" : 0,
            "byteLength" : 8032,
            "byteOffset" : 24096
        },
        {
            "buffer" : 0,
            "byteLength" : 3612,
            "byteOffset" : 32128
        }
    ],
    "buffers" : [
        {
            "byteLength" : 35740,
            "uri" : "MonitorSupportBeam.bin"
        }
    ]
}
